<?xml version="1.0" encoding="us-ascii" standalone="no"?><svg xmlns="http://www.w3.org/2000/svg" xmlns:xlink="http://www.w3.org/1999/xlink" contentStyleType="text/css" height="678px" preserveAspectRatio="none" style="width:547px;height:678px;background:#FFFFFF;" version="1.1" viewBox="0 0 547 678" width="547px" zoomAndPan="magnify"><defs/><g><!--cluster node-1--><g id="cluster_node-1"><polygon fill="none" points="92.9609,154.5,102.9609,144.5,530.9609,144.5,530.9609,651.5,520.9609,661.5,92.9609,661.5,92.9609,154.5" style="stroke:#181818;stroke-width:1.0;"/><line style="stroke:#181818;stroke-width:1.0;" x1="520.9609" x2="530.9609" y1="154.5" y2="144.5"/><line style="stroke:#181818;stroke-width:1.0;" x1="92.9609" x2="520.9609" y1="154.5" y2="154.5"/><line style="stroke:#181818;stroke-width:1.0;" x1="520.9609" x2="520.9609" y1="154.5" y2="661.5"/><text fill="#000000" font-family="sans-serif" font-size="14" font-weight="bold" lengthAdjust="spacing" textLength="55" x="280.4609" y="170.4951">node-1</text></g><!--cluster k3s--><g id="cluster_k3s"><rect fill="none" height="445" rx="2.5" ry="2.5" style="stroke:#181818;stroke-width:1.0;" width="390" x="116.9609" y="192.5"/><path d="M154.9609,192.5 L154.9609,201.7969 L144.9609,211.7969 L116.9609,211.7969 " fill="none" style="stroke:#181818;stroke-width:1.0;"/><text fill="#000000" font-family="sans-serif" font-size="14" font-weight="bold" lengthAdjust="spacing" textLength="28" x="119.9609" y="206.4951">k3s</text></g><!--entity api--><g id="elem_api"><rect fill="#F1F1F1" height="46.2969" rx="2.5" ry="2.5" style="stroke:#181818;stroke-width:0.5;" width="62" x="156.9609" y="227.5"/><rect fill="#F1F1F1" height="10" style="stroke:#181818;stroke-width:0.5;" width="15" x="198.9609" y="232.5"/><rect fill="#F1F1F1" height="2" style="stroke:#181818;stroke-width:0.5;" width="4" x="196.9609" y="234.5"/><rect fill="#F1F1F1" height="2" style="stroke:#181818;stroke-width:0.5;" width="4" x="196.9609" y="238.5"/><text fill="#000000" font-family="sans-serif" font-size="14" lengthAdjust="spacing" textLength="22" x="171.9609" y="260.4951">api</text></g><!--entity handler--><g id="elem_handler"><rect fill="#F1F1F1" height="46.2969" rx="2.5" ry="2.5" style="stroke:#181818;stroke-width:0.5;" width="94" x="245.9609" y="453.5"/><rect fill="#F1F1F1" height="10" style="stroke:#181818;stroke-width:0.5;" width="15" x="319.9609" y="458.5"/><rect fill="#F1F1F1" height="2" style="stroke:#181818;stroke-width:0.5;" width="4" x="317.9609" y="460.5"/><rect fill="#F1F1F1" height="2" style="stroke:#181818;stroke-width:0.5;" width="4" x="317.9609" y="464.5"/><text fill="#000000" font-family="sans-serif" font-size="14" lengthAdjust="spacing" textLength="54" x="260.9609" y="486.4951">handler</text></g><!--entity database--><g id="elem_database"><path d="M132.9609,586.5 C132.9609,576.5 175.9609,576.5 175.9609,576.5 C175.9609,576.5 218.9609,576.5 218.9609,586.5 L218.9609,611.7969 C218.9609,621.7969 175.9609,621.7969 175.9609,621.7969 C175.9609,621.7969 132.9609,621.7969 132.9609,611.7969 L132.9609,586.5 " fill="#F1F1F1" style="stroke:#181818;stroke-width:0.5;"/><path d="M132.9609,586.5 C132.9609,596.5 175.9609,596.5 175.9609,596.5 C175.9609,596.5 218.9609,596.5 218.9609,586.5 " fill="none" style="stroke:#181818;stroke-width:0.5;"/><text fill="#000000" font-family="sans-serif" font-size="14" lengthAdjust="spacing" textLength="66" x="142.9609" y="613.4951">database</text></g><!--entity message-broker--><g id="elem_message-broker"><path d="M218.9609,350.5 L346.9609,350.5 C351.9609,350.5 351.9609,363.6484 351.9609,363.6484 C351.9609,363.6484 351.9609,376.7969 346.9609,376.7969 L218.9609,376.7969 C213.9609,376.7969 213.9609,363.6484 213.9609,363.6484 C213.9609,363.6484 213.9609,350.5 218.9609,350.5 " fill="#F1F1F1" style="stroke:#181818;stroke-width:0.5;"/><path d="M346.9609,350.5 C341.9609,350.5 341.9609,363.6484 341.9609,363.6484 C341.9609,376.7969 346.9609,376.7969 346.9609,376.7969 " fill="none" style="stroke:#181818;stroke-width:0.5;"/><text fill="#000000" font-family="sans-serif" font-size="14" lengthAdjust="spacing" textLength="118" x="218.9609" y="368.4951">message-broker</text></g><!--entity Internet--><g id="elem_Internet"><path d="M17.6896,29.6725 C21.7108,23.8305 25.9703,22.9248 30.3475,29.3037 C33.7975,22.383 37.8285,22.1805 42.7697,27.8301 C45.0735,21.8254 51.4464,21.2764 55.4137,25.8398 C58.5111,21.5124 63.9151,21.5318 66.3084,26.6517 C71.5043,22.2479 76.2216,22.5293 79.1303,29.2806 C83.6267,22.626 88.3618,22.1036 92.5681,29.5569 C100.8493,30.6586 104.5487,37.2303 98.1278,43.9938 C103.8374,51.5402 99.484,57.9617 91.1083,58.8552 C89.8855,65.5179 85.0643,66.634 80.4774,62.0293 C77.8003,69.802 71.5354,69.7492 66.7977,64.1348 C64.222,70.7415 59.4148,71.4834 54.7504,66.2623 C50.2471,71.337 45.7276,72.2243 42.3863,65.086 C36.6669,69.7795 31.9721,68.6778 30.3774,61.0619 C26.8916,66.3303 22.3164,67.039 18.9775,60.9149 C9.8543,60.1013 6,52.2447 10.7815,44.4919 C6.2119,36.5936 8.0581,30.9509 17.6896,29.6725 " fill="#F1F1F1" style="stroke:#181818;stroke-width:0.5;"/><text fill="#000000" font-family="sans-serif" font-size="14" lengthAdjust="spacing" textLength="60" x="23.9609" y="48.4951">Internet</text></g><!--entity User--><g id="elem_User"><ellipse cx="321.9609" cy="14" fill="#F1F1F1" rx="8" ry="8" style="stroke:#181818;stroke-width:0.5;"/><path d="M321.9609,22 L321.9609,49 M308.9609,30 L334.9609,30 M321.9609,49 L308.9609,64 M321.9609,49 L334.9609,64 " fill="none" style="stroke:#181818;stroke-width:0.5;"/><text fill="#000000" font-family="sans-serif" font-size="14" lengthAdjust="spacing" textLength="31" x="306.4609" y="78.4951">User</text></g><!--link Internet to api--><g id="link_Internet_api"><path d="M47.9962,66.582 C44.4404,84.151 42.1422,108.945 50.9609,128.5 C72.5517,176.375 118.3299,209.848 151.6429,229.704 " fill="none" id="Internet-to-api" style="stroke:#181818;stroke-width:1.0;"/><polygon fill="#181818" points="156.7969,232.776,151.1139,224.7321,152.5019,230.216,147.018,231.604,156.7969,232.776" style="stroke:#181818;stroke-width:1.0;"/><text fill="#000000" font-family="sans-serif" font-size="13" lengthAdjust="spacing" textLength="226" x="51.9609" y="124.5669">https/Basic auth - save coordinates</text></g><!--link api to message-broker--><g id="link_api_message-broker"><path d="M206.9569,273.696 C226.6669,296.725 252.8656,327.3355 268.6196,345.7435 " fill="none" id="api-to-message-broker" style="stroke:#181818;stroke-width:1.0;"/><polygon fill="#181818" points="272.5209,350.302,269.708,340.8634,269.2698,346.5032,263.6299,346.0651,272.5209,350.302" style="stroke:#181818;stroke-width:1.0;"/><text fill="#000000" font-family="sans-serif" font-size="13" lengthAdjust="spacing" textLength="173" x="247.9609" y="316.5669">intialize coordinates saving</text></g><!--link message-broker to handler--><g id="link_message-broker_handler"><path d="M284.0689,376.803 C285.7269,395.204 288.3405,424.2102 290.4115,447.1972 " fill="none" id="message-broker-to-handler" style="stroke:#181818;stroke-width:1.0;"/><polygon fill="#181818" points="290.9499,453.173,294.1262,443.8504,290.5012,448.1932,286.1584,444.5682,290.9499,453.173" style="stroke:#181818;stroke-width:1.0;"/><text fill="#000000" font-family="sans-serif" font-size="13" lengthAdjust="spacing" textLength="173" x="288.9609" y="419.5669">intialize coordinates saving</text></g><!--link handler to database--><g id="link_handler_database"><path d="M245.7609,484.851 C219.2589,491.655 188.3109,504.677 171.9609,529.5 C162.9839,543.129 163.3079,555.9673 166.8999,570.3693 " fill="none" id="handler-to-database" style="stroke:#181818;stroke-width:1.0;"/><polygon fill="#181818" points="168.3519,576.191,170.055,566.4905,167.1419,571.3396,162.2928,568.4265,168.3519,576.191" style="stroke:#181818;stroke-width:1.0;"/><text fill="#000000" font-family="sans-serif" font-size="13" lengthAdjust="spacing" textLength="110" x="172.9609" y="542.5669">save coordinates</text></g><!--reverse link handler to database--><g id="link_handler_database"><path d="M297.3361,505.577 C298.6431,520.142 297.3339,532.976 287.9609,546.5 C272.1119,569.367 243.4779,582.2899 219.1309,589.4718 " fill="none" id="handler-backto-database" style="stroke:#181818;stroke-width:1.0;"/><polygon fill="#181818" points="296.7999,499.601,293.6203,508.9225,297.2467,504.581,301.5882,508.2075,296.7999,499.601" style="stroke:#181818;stroke-width:1.0;"/><text fill="#000000" font-family="sans-serif" font-size="13" lengthAdjust="spacing" textLength="162" x="295.9609" y="542.5669">read existing coordinates</text></g><!--reverse link api to database--><g id="link_api_database"><path d="M183.896,279.7172 C177.256,326.7992 163.0989,434.006 157.9609,529.5 C157.5549,537.045 156.6969,539.051 157.9609,546.5 C159.6729,556.585 163.1439,567.326 166.5849,576.376 " fill="none" id="api-backto-database" style="stroke:#181818;stroke-width:1.0;"/><polygon fill="#181818" points="184.7339,273.776,179.5162,282.1292,184.0356,278.727,187.4378,283.2464,184.7339,273.776" style="stroke:#181818;stroke-width:1.0;"/><text fill="#000000" font-family="sans-serif" font-size="13" lengthAdjust="spacing" textLength="83" x="169.9609" y="419.5669">compile map</text></g><!--reverse link User to api--><g id="link_User_api"><path d="M304.4173,87.3255 C297.8153,102.2405 291.9549,113.834 282.9609,128.5 C260.3409,165.383 228.3059,204.041 207.8309,227.457 " fill="none" id="User-backto-api" style="stroke:#181818;stroke-width:1.0;"/><polygon fill="#181818" points="306.8459,81.839,299.5453,88.4498,304.8221,86.4111,306.8607,91.6878,306.8459,81.839" style="stroke:#181818;stroke-width:1.0;"/><text fill="#000000" font-family="sans-serif" font-size="13" lengthAdjust="spacing" textLength="178" x="291.9609" y="124.5669">https/Basic auth - read map</text></g><!--SRC=[XP7FQiCm3CRlUWgHknbZjp9sw6qFi0TGOwqHJUpCKahfwBlF2ajfKyOknfP-twS_RliyHNnFnYMn0RMM2tue5u2K8sFZPtXky1iGFmiDZ8SNdL-8RHx6d3WPqYYhI4SfzjN6ev6CTgHylSpHhucdMc1WLTfps9LyuDBKr0Kk04jB6CARs-C6ExDHdxQaqY9Drc50fIFNehb4IMIi08wwPErRzP9Cg9VpdS8j9EtXWNUJto7-qowOIwwpRXwRMxZN46wvmXIHJw9MpUu4FimAzWrBppZG2E0VDGD_BcZshkmF]--></g></svg>